<?xml version="1.0" encoding="UTF-8" standalone="no"?><svg xmlns="http://www.w3.org/2000/svg" xmlns:xlink="http://www.w3.org/1999/xlink" contentScriptType="application/ecmascript" contentStyleType="text/css" height="311px" preserveAspectRatio="none" style="width:623px;height:311px;" version="1.1" viewBox="0 0 623 311" width="623px" zoomAndPan="magnify"><defs><filter height="300%" id="fw8m1pyd0fui4" width="300%" x="-1" y="-1"><feGaussianBlur result="blurOut" stdDeviation="2.0"/><feColorMatrix in="blurOut" result="blurOut2" type="matrix" values="0 0 0 0 0 0 0 0 0 0 0 0 0 0 0 0 0 0 .4 0"/><feOffset dx="4.0" dy="4.0" in="blurOut2" result="blurOut3"/><feBlend in="SourceGraphic" in2="blurOut3" mode="normal"/></filter></defs><g><!--MD5=[67a6735b2a5707e03290b64fb931c9ce]
cluster components--><rect fill="#FFFFFF" filter="url(#fw8m1pyd0fui4)" height="290.5" style="stroke:#000000;stroke-width:1.5;" width="408" x="201.5" y="7"/><rect fill="#FFFFFF" height="10" style="stroke:#000000;stroke-width:1.5;" width="15" x="589.5" y="12"/><rect fill="#FFFFFF" height="2" style="stroke:#000000;stroke-width:1.5;" width="4" x="587.5" y="14"/><rect fill="#FFFFFF" height="2" style="stroke:#000000;stroke-width:1.5;" width="4" x="587.5" y="18"/><text fill="#000000" font-family="sans-serif" font-size="14" font-weight="bold" lengthAdjust="spacing" textLength="100" x="355.5" y="32.9951">components</text><!--MD5=[4c2946a9713cb244074d861daa469ebb]
class Datepicker--><rect codeLine="2" fill="#FEFECE" filter="url(#fw8m1pyd0fui4)" height="48" id="Datepicker" style="stroke:#A80036;stroke-width:1.5;" width="98" x="490.5" y="233.5"/><ellipse cx="505.5" cy="249.5" fill="#ADD1B2" rx="11" ry="11" style="stroke:#A80036;stroke-width:1.0;"/><path d="M507.8438,245.1719 C506.9063,244.7344 506.3125,244.5938 505.4375,244.5938 C502.8125,244.5938 500.8125,246.6719 500.8125,249.3906 L500.8125,250.5156 C500.8125,253.0938 502.9219,254.9844 505.8125,254.9844 C507.0313,254.9844 508.1875,254.6875 508.9375,254.1406 C509.5156,253.7344 509.8438,253.2813 509.8438,252.8906 C509.8438,252.4375 509.4531,252.0469 508.9844,252.0469 C508.7656,252.0469 508.5625,252.125 508.375,252.3125 C507.9219,252.7969 507.9219,252.7969 507.7344,252.8906 C507.3125,253.1563 506.625,253.2813 505.8594,253.2813 C503.8125,253.2813 502.5156,252.1875 502.5156,250.4844 L502.5156,249.3906 C502.5156,247.6094 503.7656,246.2969 505.5,246.2969 C506.0781,246.2969 506.6875,246.4531 507.1563,246.7031 C507.6406,246.9844 507.8125,247.2031 507.9063,247.6094 C507.9688,248.0156 508,248.1406 508.1406,248.2656 C508.2813,248.4063 508.5156,248.5156 508.7344,248.5156 C509,248.5156 509.2656,248.375 509.4375,248.1563 C509.5469,248 509.5781,247.8125 509.5781,247.3906 L509.5781,245.9688 C509.5781,245.5313 509.5625,245.4063 509.4688,245.25 C509.3125,244.9844 509.0313,244.8438 508.7344,244.8438 C508.4375,244.8438 508.2344,244.9375 508.0156,245.25 L507.8438,245.1719 Z " fill="#000000"/><text fill="#000000" font-family="sans-serif" font-size="12" lengthAdjust="spacing" textLength="66" x="519.5" y="253.6543">Datepicker</text><line style="stroke:#A80036;stroke-width:1.5;" x1="491.5" x2="587.5" y1="265.5" y2="265.5"/><line style="stroke:#A80036;stroke-width:1.5;" x1="491.5" x2="587.5" y1="273.5" y2="273.5"/><!--MD5=[f572c118330f78587a09a8d1323f8ced]
class Calendar--><rect codeLine="4" fill="#FEFECE" filter="url(#fw8m1pyd0fui4)" height="60.8047" id="Calendar" style="stroke:#A80036;stroke-width:1.5;" width="108" x="485.5" y="74"/><ellipse cx="510.85" cy="90" fill="#ADD1B2" rx="11" ry="11" style="stroke:#A80036;stroke-width:1.0;"/><path d="M513.1938,85.6719 C512.2563,85.2344 511.6625,85.0938 510.7875,85.0938 C508.1625,85.0938 506.1625,87.1719 506.1625,89.8906 L506.1625,91.0156 C506.1625,93.5938 508.2719,95.4844 511.1625,95.4844 C512.3813,95.4844 513.5375,95.1875 514.2875,94.6406 C514.8656,94.2344 515.1938,93.7813 515.1938,93.3906 C515.1938,92.9375 514.8031,92.5469 514.3344,92.5469 C514.1156,92.5469 513.9125,92.625 513.725,92.8125 C513.2719,93.2969 513.2719,93.2969 513.0844,93.3906 C512.6625,93.6563 511.975,93.7813 511.2094,93.7813 C509.1625,93.7813 507.8656,92.6875 507.8656,90.9844 L507.8656,89.8906 C507.8656,88.1094 509.1156,86.7969 510.85,86.7969 C511.4281,86.7969 512.0375,86.9531 512.5063,87.2031 C512.9906,87.4844 513.1625,87.7031 513.2563,88.1094 C513.3188,88.5156 513.35,88.6406 513.4906,88.7656 C513.6313,88.9063 513.8656,89.0156 514.0844,89.0156 C514.35,89.0156 514.6156,88.875 514.7875,88.6563 C514.8969,88.5 514.9281,88.3125 514.9281,87.8906 L514.9281,86.4688 C514.9281,86.0313 514.9125,85.9063 514.8188,85.75 C514.6625,85.4844 514.3813,85.3438 514.0844,85.3438 C513.7875,85.3438 513.5844,85.4375 513.3656,85.75 L513.1938,85.6719 Z " fill="#000000"/><text fill="#000000" font-family="sans-serif" font-size="12" lengthAdjust="spacing" textLength="53" x="527.15" y="94.1543">Calendar</text><line style="stroke:#A80036;stroke-width:1.5;" x1="486.5" x2="592.5" y1="106" y2="106"/><ellipse cx="496.5" cy="117" rx="3" ry="3" style="stroke:#038048;stroke-width:1.0;fill:none;"/><text fill="#000000" font-family="sans-serif" font-size="11" lengthAdjust="spacing" textLength="82" x="505.5" y="120.2104">curTargetDate</text><line style="stroke:#A80036;stroke-width:1.5;" x1="486.5" x2="592.5" y1="126.8047" y2="126.8047"/><!--MD5=[e94d231384a51b05733b2dafe609b38f]
class TodoList--><rect codeLine="8" fill="#FEFECE" filter="url(#fw8m1pyd0fui4)" height="124.8281" id="TodoList" style="stroke:#A80036;stroke-width:1.5;" width="108" x="342.5" y="42"/><ellipse cx="368.75" cy="58" fill="#ADD1B2" rx="11" ry="11" style="stroke:#A80036;stroke-width:1.0;"/><path d="M371.0938,53.6719 C370.1563,53.2344 369.5625,53.0938 368.6875,53.0938 C366.0625,53.0938 364.0625,55.1719 364.0625,57.8906 L364.0625,59.0156 C364.0625,61.5938 366.1719,63.4844 369.0625,63.4844 C370.2813,63.4844 371.4375,63.1875 372.1875,62.6406 C372.7656,62.2344 373.0938,61.7813 373.0938,61.3906 C373.0938,60.9375 372.7031,60.5469 372.2344,60.5469 C372.0156,60.5469 371.8125,60.625 371.625,60.8125 C371.1719,61.2969 371.1719,61.2969 370.9844,61.3906 C370.5625,61.6563 369.875,61.7813 369.1094,61.7813 C367.0625,61.7813 365.7656,60.6875 365.7656,58.9844 L365.7656,57.8906 C365.7656,56.1094 367.0156,54.7969 368.75,54.7969 C369.3281,54.7969 369.9375,54.9531 370.4063,55.2031 C370.8906,55.4844 371.0625,55.7031 371.1563,56.1094 C371.2188,56.5156 371.25,56.6406 371.3906,56.7656 C371.5313,56.9063 371.7656,57.0156 371.9844,57.0156 C372.25,57.0156 372.5156,56.875 372.6875,56.6563 C372.7969,56.5 372.8281,56.3125 372.8281,55.8906 L372.8281,54.4688 C372.8281,54.0313 372.8125,53.9063 372.7188,53.75 C372.5625,53.4844 372.2813,53.3438 371.9844,53.3438 C371.6875,53.3438 371.4844,53.4375 371.2656,53.75 L371.0938,53.6719 Z " fill="#000000"/><text fill="#000000" font-family="sans-serif" font-size="12" lengthAdjust="spacing" textLength="51" x="385.25" y="62.1543">TodoList</text><line style="stroke:#A80036;stroke-width:1.5;" x1="343.5" x2="449.5" y1="74" y2="74"/><ellipse cx="353.5" cy="85" rx="3" ry="3" style="stroke:#038048;stroke-width:1.0;fill:none;"/><text fill="#000000" font-family="sans-serif" font-size="11" lengthAdjust="spacing" textLength="50" x="362.5" y="88.2104">newTask</text><line style="stroke:#A80036;stroke-width:1.5;" x1="343.5" x2="449.5" y1="94.8047" y2="94.8047"/><ellipse cx="353.5" cy="105.8047" fill="#84BE84" rx="3" ry="3" style="stroke:#038048;stroke-width:1.0;"/><text fill="#000000" font-family="sans-serif" font-size="11" lengthAdjust="spacing" textLength="55" x="362.5" y="109.0151">addTask()</text><ellipse cx="353.5" cy="118.6094" fill="#84BE84" rx="3" ry="3" style="stroke:#038048;stroke-width:1.0;"/><text fill="#000000" font-family="sans-serif" font-size="11" lengthAdjust="spacing" textLength="72" x="362.5" y="121.8198">deleteTask()</text><ellipse cx="353.5" cy="131.4141" fill="#84BE84" rx="3" ry="3" style="stroke:#038048;stroke-width:1.0;"/><text fill="#000000" font-family="sans-serif" font-size="11" lengthAdjust="spacing" textLength="55" x="362.5" y="134.6245">clearList()</text><ellipse cx="353.5" cy="144.2188" fill="#84BE84" rx="3" ry="3" style="stroke:#038048;stroke-width:1.0;"/><text fill="#000000" font-family="sans-serif" font-size="11" lengthAdjust="spacing" textLength="81" x="362.5" y="147.4292">taskChecked()</text><ellipse cx="353.5" cy="157.0234" fill="#84BE84" rx="3" ry="3" style="stroke:#038048;stroke-width:1.0;"/><text fill="#000000" font-family="sans-serif" font-size="11" lengthAdjust="spacing" textLength="82" x="362.5" y="160.2339">isTargetDate()</text><!--MD5=[d8c8cfd5ca149094f5b67f9f607a5ec7]
class Token--><rect codeLine="17" fill="#FEFECE" filter="url(#fw8m1pyd0fui4)" height="86.4141" id="Token" style="stroke:#A80036;stroke-width:1.5;" width="90" x="217.5" y="61.5"/><ellipse cx="241.95" cy="77.5" fill="#ADD1B2" rx="11" ry="11" style="stroke:#A80036;stroke-width:1.0;"/><path d="M244.2938,73.1719 C243.3563,72.7344 242.7625,72.5938 241.8875,72.5938 C239.2625,72.5938 237.2625,74.6719 237.2625,77.3906 L237.2625,78.5156 C237.2625,81.0938 239.3719,82.9844 242.2625,82.9844 C243.4813,82.9844 244.6375,82.6875 245.3875,82.1406 C245.9656,81.7344 246.2938,81.2813 246.2938,80.8906 C246.2938,80.4375 245.9031,80.0469 245.4344,80.0469 C245.2156,80.0469 245.0125,80.125 244.825,80.3125 C244.3719,80.7969 244.3719,80.7969 244.1844,80.8906 C243.7625,81.1563 243.075,81.2813 242.3094,81.2813 C240.2625,81.2813 238.9656,80.1875 238.9656,78.4844 L238.9656,77.3906 C238.9656,75.6094 240.2156,74.2969 241.95,74.2969 C242.5281,74.2969 243.1375,74.4531 243.6063,74.7031 C244.0906,74.9844 244.2625,75.2031 244.3563,75.6094 C244.4188,76.0156 244.45,76.1406 244.5906,76.2656 C244.7313,76.4063 244.9656,76.5156 245.1844,76.5156 C245.45,76.5156 245.7156,76.375 245.8875,76.1563 C245.9969,76 246.0281,75.8125 246.0281,75.3906 L246.0281,73.9688 C246.0281,73.5313 246.0125,73.4063 245.9188,73.25 C245.7625,72.9844 245.4813,72.8438 245.1844,72.8438 C244.8875,72.8438 244.6844,72.9375 244.4656,73.25 L244.2938,73.1719 Z " fill="#000000"/><text fill="#000000" font-family="sans-serif" font-size="12" lengthAdjust="spacing" textLength="37" x="258.05" y="81.6543">Token</text><line style="stroke:#A80036;stroke-width:1.5;" x1="218.5" x2="306.5" y1="93.5" y2="93.5"/><ellipse cx="228.5" cy="104.5" rx="3" ry="3" style="stroke:#038048;stroke-width:1.0;fill:none;"/><text fill="#000000" font-family="sans-serif" font-size="11" lengthAdjust="spacing" textLength="32" x="237.5" y="107.7104">token</text><ellipse cx="228.5" cy="117.3047" rx="3" ry="3" style="stroke:#038048;stroke-width:1.0;fill:none;"/><text fill="#000000" font-family="sans-serif" font-size="11" lengthAdjust="spacing" textLength="22" x="237.5" y="120.5151">lock</text><line style="stroke:#A80036;stroke-width:1.5;" x1="218.5" x2="306.5" y1="127.1094" y2="127.1094"/><ellipse cx="228.5" cy="138.1094" fill="#84BE84" rx="3" ry="3" style="stroke:#038048;stroke-width:1.0;"/><text fill="#000000" font-family="sans-serif" font-size="11" lengthAdjust="spacing" textLength="64" x="237.5" y="141.3198">addToken()</text><!--MD5=[647da9b3bf6a783af7ccdca93b90ed9d]
class index--><rect codeLine="24" fill="#FEFECE" filter="url(#fw8m1pyd0fui4)" height="137.6328" id="index" style="stroke:#A80036;stroke-width:1.5;" width="175" x="7" y="35.5"/><ellipse cx="61.25" cy="51.5" fill="#ADD1B2" rx="11" ry="11" style="stroke:#A80036;stroke-width:1.0;"/><path d="M63.5938,47.1719 C62.6563,46.7344 62.0625,46.5938 61.1875,46.5938 C58.5625,46.5938 56.5625,48.6719 56.5625,51.3906 L56.5625,52.5156 C56.5625,55.0938 58.6719,56.9844 61.5625,56.9844 C62.7813,56.9844 63.9375,56.6875 64.6875,56.1406 C65.2656,55.7344 65.5938,55.2813 65.5938,54.8906 C65.5938,54.4375 65.2031,54.0469 64.7344,54.0469 C64.5156,54.0469 64.3125,54.125 64.125,54.3125 C63.6719,54.7969 63.6719,54.7969 63.4844,54.8906 C63.0625,55.1563 62.375,55.2813 61.6094,55.2813 C59.5625,55.2813 58.2656,54.1875 58.2656,52.4844 L58.2656,51.3906 C58.2656,49.6094 59.5156,48.2969 61.25,48.2969 C61.8281,48.2969 62.4375,48.4531 62.9063,48.7031 C63.3906,48.9844 63.5625,49.2031 63.6563,49.6094 C63.7188,50.0156 63.75,50.1406 63.8906,50.2656 C64.0313,50.4063 64.2656,50.5156 64.4844,50.5156 C64.75,50.5156 65.0156,50.375 65.1875,50.1563 C65.2969,50 65.3281,49.8125 65.3281,49.3906 L65.3281,47.9688 C65.3281,47.5313 65.3125,47.4063 65.2188,47.25 C65.0625,46.9844 64.7813,46.8438 64.4844,46.8438 C64.1875,46.8438 63.9844,46.9375 63.7656,47.25 L63.5938,47.1719 Z " fill="#000000"/><text fill="#000000" font-family="sans-serif" font-size="12" lengthAdjust="spacing" textLength="58" x="81.75" y="55.6543">index.vue</text><line style="stroke:#A80036;stroke-width:1.5;" x1="8" x2="181" y1="67.5" y2="67.5"/><ellipse cx="18" cy="78.5" rx="3" ry="3" style="stroke:#038048;stroke-width:1.0;fill:none;"/><text fill="#000000" font-family="sans-serif" font-size="11" lengthAdjust="spacing" textLength="37" x="27" y="81.7104">tasks[]</text><ellipse cx="18" cy="91.3047" rx="3" ry="3" style="stroke:#038048;stroke-width:1.0;fill:none;"/><text fill="#000000" font-family="sans-serif" font-size="11" lengthAdjust="spacing" textLength="35" x="27" y="94.5151">days[]</text><ellipse cx="18" cy="104.1094" rx="3" ry="3" style="stroke:#038048;stroke-width:1.0;fill:none;"/><text fill="#000000" font-family="sans-serif" font-size="11" lengthAdjust="spacing" textLength="42" x="27" y="107.3198">months</text><line style="stroke:#A80036;stroke-width:1.5;" x1="8" x2="181" y1="113.9141" y2="113.9141"/><ellipse cx="18" cy="124.9141" fill="#84BE84" rx="3" ry="3" style="stroke:#038048;stroke-width:1.0;"/><text fill="#000000" font-family="sans-serif" font-size="11" lengthAdjust="spacing" textLength="149" x="27" y="128.1245">async readFromFirestore()</text><ellipse cx="18" cy="137.7188" fill="#84BE84" rx="3" ry="3" style="stroke:#038048;stroke-width:1.0;"/><text fill="#000000" font-family="sans-serif" font-size="11" lengthAdjust="spacing" textLength="137" x="27" y="140.9292">async writeToFirestore()</text><ellipse cx="18" cy="150.5234" fill="#84BE84" rx="3" ry="3" style="stroke:#038048;stroke-width:1.0;"/><text fill="#000000" font-family="sans-serif" font-size="11" lengthAdjust="spacing" textLength="109" x="27" y="153.7339">getDateAppendix()</text><ellipse cx="18" cy="163.3281" fill="#84BE84" rx="3" ry="3" style="stroke:#038048;stroke-width:1.0;"/><text fill="#000000" font-family="sans-serif" font-size="11" lengthAdjust="spacing" textLength="55" x="27" y="166.5386">getDate()</text><!--MD5=[5f3f1f181d371dfedae26f918d480fa4]
link Calendar to Datepicker--><path codeLine="22" d="M539.5,135.333 C539.5,162.246 539.5,201.559 539.5,228.0397 " fill="none" id="Calendar-to-Datepicker" style="stroke:#A80036;stroke-width:1.0;"/><polygon fill="#A80036" points="539.5,233.1572,543.5,224.1572,539.5,228.1572,535.5,224.1572,539.5,233.1572" style="stroke:#A80036;stroke-width:1.0;"/><!--MD5=[0b10105214b5a41d4f29a145162e0ff2]
@startuml
component components {
class Datepicker {
}
class Calendar {
  +curTargetDate
}

class TodoList {
  +newTask
  +addTask()
  +deleteTask()
  +clearList()
  +taskChecked()
  +isTargetDate()
}

class Token {
  +token
  +lock
  +addToken()
}
Calendar - -> Datepicker
}
class index as "index.vue" {
  +tasks[]
  +days[]
  +months
  +async readFromFirestore()
  +async writeToFirestore()
  +getDateAppendix()
  +getDate()
}
@enduml

PlantUML version 1.2021.5(Sun Apr 25 11:20:28 UTC 2021)
(GPL source distribution)
Java Runtime: Java(TM) SE Runtime Environment
JVM: Java HotSpot(TM) 64-Bit Server VM
Default Encoding: UTF-8
Language: en
Country: US
--></g></svg>